<svg xmlns="http://www.w3.org/2000/svg" viewBox="0 0 400 400" fill="none"><defs><linearGradient id="g" x1="0%" y1="0%" x2="100%" y2="100%"><stop offset="0%" stop-color="#4ade80"/><stop offset="100%" stop-color="#10b981"/></linearGradient></defs><path d="M120 200 C120 160 160 140 200 150 C220 110 280 110 300 150 C340 150 360 190 340 220 C360 240 340 270 300 270 L100 270 C70 270 60 230 80 210 C60 190 80 160 120 200Z" fill="#111118" stroke="url(#g)" stroke-width="2"/><rect x="130" y="290" width="50" height="70" rx="6" fill="#1a1a24" stroke="#4ade80" stroke-width="1.5"/><rect x="195" y="290" width="50" height="70" rx="6" fill="#1a1a24" stroke="#10b981" stroke-width="1.5"/><rect x="260" y="290" width="50" height="70" rx="6" fill="#1a1a24" stroke="#4ade80" stroke-width="1.5"/><circle cx="155" cy="310" r="4" fill="#10b981"/><circle cx="220" cy="310" r="4" fill="#10b981"/><circle cx="285" cy="310" r="4" fill="#10b981"/></svg>
